<svg version="1.1" viewBox="0.0 0.0 383.1417322834646 573.4278215223097" fill="none" stroke="none" stroke-linecap="square" stroke-miterlimit="10" xmlns:xlink="http://www.w3.org/1999/xlink" xmlns="http://www.w3.org/2000/svg"><clipPath id="p.0"><path d="m0 0l383.14172 0l0 573.4278l-383.14172 0l0 -573.4278z" clip-rule="nonzero"/></clipPath><g clip-path="url(#p.0)"><path fill="#000000" fill-opacity="0.0" d="m0 0l383.14172 0l0 573.4278l-383.14172 0z" fill-rule="evenodd"/><path fill="#cacdc2" fill-opacity="0.6" d="m225.3517 215.03674l66.55907 103.41995l45.055115 182.2677l-280.56955 -2.0472412l-12.288712 -143.35693l69.62992 -93.18112l20.480316 13.312347l1.0236206 182.2677l-27.645668 18.43045l154.61942 3.0734863l-18.430435 -65.53543z" fill-rule="evenodd"/><path fill="#7d845f" fill-opacity="0.6" d="m45.131233 478.19684l8.191601 -114.68503l34.816273 -17.40683l24.574806 75.77429l-5.1181107 44.031494z" fill-rule="evenodd"/><path fill="#32965d" fill-opacity="0.6" d="m139.33858 164.86089l-95.230965 159.74016l-5.120735 162.81366l312.31497 13.309692l-43.007874 -178.1706l-75.77429 -155.64566z" fill-rule="evenodd"/><path fill="#cacdc2" fill-opacity="0.6" d="m252.80577 330.68765l42.42781 163.2861l-42.42781 1.2861023z" fill-rule="evenodd"/><path fill="#a6b07e" fill-opacity="0.6" d="m85.661415 90.25984l36.0 -2.572174l-18.0 119.572174l9.0 115.71391l-18.0 135.0l-20.56955 1.2861023l25.713905 -126.0z" fill-rule="evenodd"/><path fill="#2d9f51" fill-opacity="0.6" d="m101.77526 88.973755l-3.2557068 378.0l48.85331 -2.572174l-13.027252 -303.42783l-16.28518 -70.71391z" fill-rule="evenodd"/><path fill="#899169" fill-opacity="0.6" d="m257.09448 372.72702l52.223114 2.0498962l18.433075 108.54068l-64.51184 1.0236206l-9.21521 -91.13388z" fill-rule="evenodd"/><path fill="#32965d" fill-opacity="0.6" d="m98.519684 398.83203l-18.0 46.28607l-12.858269 61.71393l255.85303 0l-29.566925 -66.85828l-22.595795 -87.427826l-32.29135 -52.713898l1.2388458 118.28607l43.469833 63.0l-145.3937 -3.8582458l-14.141739 -360.0z" fill-rule="evenodd"/><path fill="#44c2f4" fill-opacity="0.6" d="m111.37533 469.54593l-57.855644 28.286102l33.427826 12.855621l228.85828 5.1443787l20.56955 -21.858276l-52.71393 -29.572174z" fill-rule="evenodd"/><path fill="#c1e7fc" fill-opacity="0.6" d="m113.94751 484.97375l-38.57218 14.144348l228.85825 11.56955l19.286102 -20.56955l-54.0 -16.716522l-77.14435 -18.0z" fill-rule="evenodd"/><path fill="#aae0f8" fill-opacity="0.6" d="m110.091866 83.31759l71.58369 1.3274994l27.332108 22.562103l6.5068817 49.103996l-83.29822 9.28981z" fill-rule="evenodd"/><path fill="#7d845f" fill-opacity="0.6" d="m256.07086 387.063l31.742798 -5.118103l20.480316 99.32547l-47.102386 0z" fill-rule="evenodd"/><path fill="#2198d0" fill-opacity="0.6" d="m106.2336 84.603676l110.572174 20.56955l6.427826 54.000008l-96.427826 -41.14174z" fill-rule="evenodd"/><path fill="#44c2f4" fill-opacity="0.6" d="m176.94751 386.7454l-61.713913 83.572205l165.85826 6.4277954l-57.85826 -133.7139l-59.14174 -12.858276z" fill-rule="evenodd"/><path fill="#2198d0" fill-opacity="0.6" d="m131.7874 237.41995l-21.125984 74.44357l-34.20472 61.36743l65.39107 38.228363l6.0367584 -172.02887l1.005249 -125.75066z" fill-rule="evenodd"/><path fill="#aae0f8" fill-opacity="0.6" d="m130.66142 106.45932l2.3700714 239.14435l59.225723 18.0l43.82939 -75.85828l-7.1102295 -138.85825l-12.1706085 -50.14174z" fill-rule="evenodd"/><path fill="#aae0f8" fill-opacity="0.6" d="m126.75853 274.64304l-51.307083 81.485565l-14.083992 92.5538l43.257217 -87.52231l11.06562 67.40158l29.175842 -186.11285l-24.144348 45.270325" fill-rule="evenodd"/><path fill="#44c2f4" fill-opacity="0.6" d="m105.97638 91.031494l28.286087 93.85565l-12.601051 15.430435l24.173225 79.71391l-20.572174 18.0l-1.286087 186.42783l154.2861 -1.2861023l-33.42784 -52.713898l-9.0 -186.42783l-9.0 -108.0l-47.572174 -41.144356z" fill-rule="evenodd"/><path fill="#44c2f4" fill-opacity="0.6" d="m156.37534 291.60367l-25.713913 138.85565l36.0 29.572174l69.430435 -117.0l-65.572174 -86.14435l23.141739 -83.569565l-43.713913 -66.85826l12.858261 198.0z" fill-rule="evenodd"/><path fill="#0d6eb2" fill-opacity="0.6" d="m156.1181 235.0315l9.0 60.427826l-23.141724 15.427826l5.1417236 34.716522l20.57219 11.56955l10.286087 109.2861l24.427826 5.144348l10.286087 -38.572174l-3.8556519 -138.85828l-9.0 -30.855621z" fill-rule="evenodd"/><path fill="#1d83c1" fill-opacity="0.6" d="m154.83464 449.7454l-5.144348 -210.85825l16.713913 23.144348l11.572174 -54.0l16.713913 45.0l18.0 -43.713913l-3.8556519 55.286087l19.283463 18.0l7.7165375 145.28348l-20.572174 47.572174z" fill-rule="evenodd"/><path fill="#0d6eb2" d="m170.51968 273.60367l-32.14435 172.28348l81.0 -73.28348l-2.5695648 -191.57217l-45.0 -23.144348z" fill-rule="evenodd"/><path fill="#44c2f4" fill-opacity="0.6" d="m236.09186 451.0315l0 -113.14435l-15.430435 70.71652l-46.286087 -29.572174l-59.14174 37.286102l7.713913 51.427795l144.0 2.5722046z" fill-rule="evenodd"/><path fill="#0d6eb2" d="m174.63255 184.88715l-3.8556519 102.858246l20.572174 19.286102l-16.716522 48.85565l51.430435 -29.56955z" fill-rule="evenodd"/><path fill="#aae0f8" fill-opacity="0.6" d="m121.31504 104.03948l42.567787 186.41467l4.1221466 35.381348l3.986679 -66.20148l23.300735 18.305328l12.521057 -178.11163z" fill-rule="evenodd"/><path fill="#899169" fill-opacity="0.6" d="m74.826775 322.5538l-11.26247 132.09186l64.509186 16.38321l-14.335953 -165.88452z" fill-rule="evenodd"/><path fill="#aae0f8" fill-opacity="0.6" d="m142.2336 146.31758l18.0 123.42781l-19.286087 42.427826l2.572174 70.71393l27.0 0l-3.858261 -75.85565l43.713913 -34.713898l5.144348 -163.2861l-93.85827 -1.286087z" fill-rule="evenodd"/><path fill="#c1e7fc" fill-opacity="0.6" d="m166.66142 443.3176l30.858261 -9.0l24.427826 10.286072l63.0 34.71393l-153.0 5.1417236z" fill-rule="evenodd"/><path fill="#2198d0" fill-opacity="0.6" d="m200.09186 431.7454l-80.99999 46.286102l147.85565 -9.0l-33.427826 -38.572174z" fill-rule="evenodd"/><path fill="#2198d0" fill-opacity="0.6" d="m186.97638 474.17322l-45.0 -29.56955l14.141724 -248.14435l14.144363 32.14435l28.286087 -3.858261l5.141739 -88.71391l16.713913 128.57217l9.0 -25.716522l7.7138977 75.858246l-3.8556366 113.141754z" fill-rule="evenodd"/><path fill="#aae0f8" fill-opacity="0.6" d="m156.63255 138.60367l28.286087 136.28348l-10.286087 54.0l28.286087 66.858246l16.713913 -60.427795l-9.0 -79.71393l11.572174 -123.430435l-74.572174 -18.000008z" fill-rule="evenodd"/><path fill="#c1e7fc" fill-opacity="0.6" d="m110.34725 78.173225l70.041435 2.4507751l23.345383 9.800583l15.563583 22.049446l9.079193 49.000427l-1.294754 72.277756l-19.45581 -88.202774l-12.97142 -37.97445l-18.158401 -7.3498154l-67.44397 -3.6761627" fill-rule="evenodd"/><path fill="#899169" fill-opacity="0.6" d="m60.490814 319.48032l51.19948 -12.278229l19.456696 170.99738l-76.80053 -1.1942139z" fill-rule="evenodd"/><path fill="#0d6eb2" d="m129.7769 307.8399l-58.349083 28.167969l-18.110233 144.86615l72.433075 -9.05249z" fill-rule="evenodd"/><path fill="#44c2f4" fill-opacity="0.6" d="m79.47507 312.8714l-14.083992 63.37793l11.06562 52.312347l14.083984 -4.0236206l-7.041992 -41.246704l10.060364 -48.288727l0 -19.115479z" fill-rule="evenodd"/><path fill="#c1e7fc" fill-opacity="0.6" d="m131.7874 303.81628l-49.29396 15.089233l-25.149605 80.48294l6.0341187 85.509186l41.24672 -40.23886z" fill-rule="evenodd"/><path fill="#c1e7fc" fill-opacity="0.6" d="m131.7874 303.81628l-49.29396 15.089233l-25.149605 80.48294l6.0341187 85.509186l41.24672 -40.23886z" fill-rule="evenodd"/><path fill="#1d83c1" fill-opacity="0.6" d="m127.76378 316.89502l-24.144356 33.19684l-31.186356 130.78217l43.257225 0z" fill-rule="evenodd"/><path fill="#44c2f4" fill-opacity="0.6" d="m92.5538 358.14172l33.196854 22.131256l7.041992 105.63254l-57.3412 -23.1391l22.131233 -52.312347z" fill-rule="evenodd"/><path fill="#aae0f8" fill-opacity="0.6" d="m85.51181 348.08136l38.228348 16.094482l2.010498 118.7113l-16.09449 -26.157501l-21.125984 20.120758l-9.055115 -74.4462z" fill-rule="evenodd"/><path fill="#c1e7fc" fill-opacity="0.6" d="m86.51706 323.937l4.0236206 84.50394l26.157486 -21.125977l16.094482 13.078735l18.110245 -20.120728l-30.181107 -70.41995l-24.144356 11.065613z" fill-rule="evenodd"/><path fill="#44c2f4" fill-opacity="0.6" d="m151.2336 435.60367l-32.14173 45.0l106.713905 -19.286072z" fill-rule="evenodd"/><path fill="#e4f5ff" fill-opacity="0.6" d="m124.74541 313.87665l46.278214 143.86087l-14.086609 35.20999l-29.173233 -21.125977l-7.041992 -88.53018l-22.131233 -41.246735z" fill-rule="evenodd"/><path fill="#c1e7fc" fill-opacity="0.6" d="m113.94751 92.31759l99.002396 3.631401l-1.25354 55.6642l-30.07756 -16.941605l-50.126694 19.362534z" fill-rule="evenodd"/><path fill="#aae0f8" fill-opacity="0.6" d="m206.26247 110.31759l-82.28609 -20.572182l-2.5721817 83.572174l33.430443 84.85564l-30.858261 28.286102l-6.427826 64.28607l-7.7139053 15.427826l14.141731 30.858276l-19.286087 92.572174l188.99998 -7.716522l-41.141724 -51.427826l-7.713913 -167.14172z" fill-rule="evenodd"/><path fill="#e4f5ff" fill-opacity="0.6" d="m122.94751 111.603676l36.16797 80.52494l5.2572174 -80.96589l35.719162 15.868767l28.283478 100.28609l-10.283478 -122.144356l-23.144348 -18.0l-75.855644 0z" fill-rule="evenodd"/><path fill="#c1e7fc" fill-opacity="0.6" d="m129.37534 443.3176l-30.855652 45.0l159.42783 -9.0z" fill-rule="evenodd"/><path fill="#ffffff" fill-opacity="0.6" d="m283.6614 466.97375l-35.999985 25.713898l14.141739 20.572174l37.28607 -5.144348l14.144348 -39.85562z" fill-rule="evenodd"/><path fill="#ffffff" fill-opacity="0.6" d="m222.26454 515.66296l34.992172 -1.1414795l14.090149 -19.915588l-16.74173 -13.08374l-40.748947 20.201263z" fill-rule="evenodd"/><path fill="#aae0f8" fill-opacity="0.6" d="m145.87138 409.44882l26.157486 83.49869l-64.385826 -46.27823l5.031494 -50.299194z" fill-rule="evenodd"/><path fill="#ffffff" fill-opacity="0.6" d="m50.231976 482.09113l40.347134 29.483398l36.414787 -3.6466675l-5.17482 -24.977692l-66.54793 -19.281006z" fill-rule="evenodd"/><path fill="#ffffff" fill-opacity="0.6" d="m148.9394 487.78494l-28.535881 -17.128906l-12.218613 15.295715l13.142654 23.742493l33.936806 -1.5799866z" fill-rule="evenodd"/><path fill="#c1e7fc" fill-opacity="0.6" d="m104.62467 331.98425l-26.154854 98.590546l13.078735 22.131226l25.149612 -22.131226l-5.031502 -31.18634l21.125984 51.304443l5.031494 -46.275574l-16.097107 -60.35959l-1.005249 -30.181091l-20.120735 5.0288696z" fill-rule="evenodd"/><path fill="#ffc107" fill-opacity="0.6" d="m285.05597 457.4173l0 0c-0.51312256 -1.1132812 -2.3886108 -1.5715637 -4.188965 -1.0236206l0 0c-1.800354 0.5479431 -2.8438416 1.8945923 -2.330719 3.0078735l0 0c0.5131531 1.1132507 2.3886108 1.5715637 4.1889954 1.0236206l0 0c1.800354 -0.5479431 2.8438416 -1.8946228 2.3306885 -3.0078735z" fill-rule="evenodd"/><path fill="#ffc107" fill-opacity="0.6" d="m294.31985 460.86017l0 0c-0.5131531 -1.1132812 -2.3886414 -1.5715637 -4.1889954 -1.0236206l0 0c-1.800354 0.5479431 -2.8438416 1.8945923 -2.330719 3.0078735l0 0c0.5131531 1.1132507 2.3886414 1.5715637 4.1889954 1.0236206l0 0c1.800354 -0.5479431 2.8438416 -1.8946228 2.330719 -3.0078735z" fill-rule="evenodd"/><path fill="#ffc107" fill-opacity="0.6" d="m280.4673 465.42865l0 0c-1.6003418 1.4437561 -2.0233765 3.2557678 -0.94488525 4.047241l0 0c0.5179138 0.38006592 1.3198853 0.46914673 2.2294922 0.24765015c0.90963745 -0.22149658 1.8523865 -0.7354431 2.6209106 -1.4287415l0 0c1.6003113 -1.4437866 2.023346 -3.2557983 0.94488525 -4.0472717l0 0c-1.0784912 -0.7914429 -3.2500916 -0.2626648 -4.850403 1.1811218z" fill-rule="evenodd"/><path fill="#ffffff" fill-opacity="0.6" d="m79.47507 464.77954l48.28871 -7.0420227l24.144363 26.154877l-23.139114 22.131226l-56.33596 2.0131226l-12.073486 -14.083984z" fill-rule="evenodd"/><path fill="#ffffff" fill-opacity="0.6" d="m177.05774 509.042l16.097122 -36.21521l-27.162735 -7.041992l-33.19948 15.089233l12.073486 30.181091z" fill-rule="evenodd"/><path fill="#ffffff" fill-opacity="0.6" d="m92.5538 491.93964l22.131233 -16.094482l18.107613 13.078735l-4.0236206 16.094482l-32.191597 0z" fill-rule="evenodd"/><path fill="#ffffff" fill-opacity="0.6" d="m134.80577 469.8084l18.10762 -7.041992l16.097107 16.097107l-5.031494 26.154846l-43.257217 2.0131226l-4.0236206 -17.102356z" fill-rule="evenodd"/><path fill="#ffffff" fill-opacity="0.6" d="m90.54068 508.03674l-34.204723 -3.0183716l-13.076115 -22.131226l18.107613 -26.157501l23.136482 15.091888z" fill-rule="evenodd"/><path fill="#e4f5ff" fill-opacity="0.6" d="m122.73491 294.76117l-24.144356 18.11023l-18.110237 21.125977l-9.052498 60.35959l31.186356 -58.34909l25.149605 -3.0183716z" fill-rule="evenodd"/><path fill="#ffe5d9" fill-opacity="0.6667" d="m262.29922 345.90027l5.0 31.0l42.501312 3.4986877l1.0 -35.0z" fill-rule="evenodd"/><path fill="#ece4db" fill-opacity="0.6667" d="m260.39896 353.39896l44.0 -4.0l4.5013123 28.0l-45.0 -1.4986877z" fill-rule="evenodd"/><path fill="#c17362" fill-opacity="0.8667" d="m257.39896 349.39896l60.0 1.0l-32.498688 -23.0z" fill-rule="evenodd"/><path fill="#dc3545" fill-opacity="0.6" d="m281.89896 363.9672l1.0 14.498688l10.0 1.0l0 -17.498688z" fill-rule="evenodd"/><path fill="#ffc107" fill-opacity="0.6" d="m293.58386 370.08795l0 0c-0.46096802 -1.0001831 -1.7583008 -1.5289917 -2.897644 -1.1810913l0 0c-1.1393738 0.3479004 -1.6893005 1.4407349 -1.228363 2.4409485l0 0c0.46096802 1.0001831 1.7583008 1.5289917 2.897644 1.1810913l0 0c1.1393738 -0.3479004 1.6893005 -1.4407349 1.228363 -2.4409485z" fill-rule="evenodd"/><g mask="url(#mask-p.1)"><use xlink:href="#p.1" transform="matrix(1.0 0.0 0.0 -1.0 0.0 982.4514435695538)"/></g><defs><mask id="mask-p.1" maskUnits="userSpaceOnUse" x="267.4173228346457" y="491.2257217847769" width="63.354330708661394" height="114.66404199475068"><linearGradient gradientUnits="userSpaceOnUse" id="gradient-p.1" x1="267.4173228354759" y1="491.2254924427284" x2="267.41729377962906" y2="499.25199147037176"><stop offset="0%" stop-color="#ffffff" stop-opacity="1.0"/><stop offset="100%" stop-color="#ffffff" stop-opacity="0.0"/></linearGradient><rect fill="url(#gradient-p.1)" x="267.4173228346457" y="491.2257217847769" width="63.354330708661394" height="114.66404199475068"/></mask></defs><g id="p.1"><path fill="#000000" fill-opacity="0.0" d="m289.03412 378.56168c0 7.7516174 -20.896942 13.606476 -14.587921 18.11023c12.451691 8.888794 48.329376 7.839203 40.74539 21.126007c-7.99057 13.9991455 -45.77426 -0.52593994 -45.77426 15.59317c0 13.432159 25.053558 9.939819 36.719147 16.59842c13.113251 7.4849243 22.635193 24.137177 22.635193 39.236206" fill-rule="evenodd"/><path stroke="#a7ae8f" stroke-width="4.0" stroke-linejoin="round" stroke-linecap="butt" d="m289.03412 378.56168c0 7.7516174 -20.896942 13.606476 -14.587921 18.11023c12.451691 8.888794 48.329376 7.839203 40.74539 21.126007c-7.99057 13.9991455 -45.77426 -0.52593994 -45.77426 15.59317c0 13.432159 25.053558 9.939819 36.719147 16.59842c13.113251 7.4849243 22.635193 24.137177 22.635193 39.236206" fill-rule="evenodd"/></g><path fill="#ffc107" fill-opacity="0.6" d="m327.55304 494.3114l0 0c-0.28753662 1.1916199 -2.0385132 2.0048523 -3.9108887 1.8164062l0 0c-1.872406 -0.18841553 -3.157196 -1.30719 -2.8696594 -2.4987793l0 0c0.28753662 -1.1916199 2.0385132 -2.0048523 3.9108887 -1.8164368l0 0c1.872406 0.18844604 3.157196 1.30719 2.8696594 2.4988098z" fill-rule="evenodd"/><path fill="#ffc107" fill-opacity="0.6" d="m335.97333 489.1377l0 0c-0.28753662 1.1915894 -2.0385132 2.0048523 -3.9109192 1.8164062l0 0c-1.872406 -0.18844604 -3.157196 -1.30719 -2.8696594 -2.4988098l0 0c0.28753662 -1.1916199 2.0385132 -2.0048523 3.9109192 -1.8164062l0 0c1.872406 0.18844604 3.157196 1.30719 2.8696594 2.4988098z" fill-rule="evenodd"/><path fill="#ffc107" fill-opacity="0.6" d="m321.49814 487.342l0 0c-1.849884 -1.1060181 -2.616211 -2.8016052 -1.7117004 -3.78714l0 0c0.4343567 -0.4732666 1.2038269 -0.716156 2.1391296 -0.67526245c0.9352722 0.040924072 1.9597778 0.3623047 2.848114 0.8934326l0 0c1.849884 1.1060486 2.616211 2.8016052 1.7117004 3.78714l0 0c-0.9045105 0.98553467 -3.1373901 0.8878784 -4.9872437 -0.21817017z" fill-rule="evenodd"/><path fill="#ffc107" fill-opacity="0.6" d="m315.83127 482.18674l0 0c-0.28753662 1.1915894 -2.0385132 2.0048523 -3.9109192 1.8164062l0 0c-1.872406 -0.18844604 -3.157196 -1.30719 -2.8696594 -2.4988098l0 0c0.28753662 -1.1915894 2.0385132 -2.0048523 3.9109192 -1.8164062l0 0c1.872406 0.18844604 3.157196 1.30719 2.8696594 2.4988098z" fill-rule="evenodd"/><path fill="#ffc107" fill-opacity="0.6" d="m324.25153 477.013l0 0c-0.28753662 1.1916199 -2.0384827 2.0048523 -3.9108887 1.8164368l0 0c-1.872406 -0.18844604 -3.157196 -1.30719 -2.8696594 -2.4988098l0 0c0.28753662 -1.1916199 2.0385132 -2.0048523 3.9109192 -1.8164062l0 0c1.8723755 0.18841553 3.1571655 1.3071594 2.869629 2.4987793z" fill-rule="evenodd"/><path fill="#ffc107" fill-opacity="0.6" d="m309.77634 475.21735l0 0c-1.8498535 -1.1060486 -2.616211 -2.8016052 -1.7116699 -3.78714l0 0c0.4343567 -0.4732666 1.2038269 -0.716156 2.1390991 -0.67526245c0.93530273 0.040924072 1.9598083 0.3623047 2.8481445 0.8934326l0 0c1.8498535 1.1060486 2.616211 2.8016052 1.7117004 3.78714l0 0c-0.904541 0.98553467 -3.1373901 0.8878479 -4.987274 -0.21817017z" fill-rule="evenodd"/></g></svg>