<svg version="1.1" viewBox="0.0 0.0 383.1417322834646 573.4278215223097" fill="none" stroke="none" stroke-linecap="square" stroke-miterlimit="10" xmlns:xlink="http://www.w3.org/1999/xlink" xmlns="http://www.w3.org/2000/svg"><clipPath id="p.0"><path d="m0 0l383.14172 0l0 573.4278l-383.14172 0l0 -573.4278z" clip-rule="nonzero"/></clipPath><g clip-path="url(#p.0)"><path fill="#000000" fill-opacity="0.0" d="m0 0l383.14172 0l0 573.4278l-383.14172 0z" fill-rule="evenodd"/><path fill="#cacdc2" fill-opacity="0.6" d="m225.3517 215.03674l66.55907 103.41995l45.055115 182.2677l-280.56955 -2.0472412l-12.288712 -143.35693l69.62992 -93.18112l20.480316 13.312347l1.0236206 182.2677l-27.645668 18.43045l154.61942 3.0734863l-18.430435 -65.53543z" fill-rule="evenodd"/><path fill="#7d845f" fill-opacity="0.6" d="m45.131233 478.19684l8.191601 -114.68503l34.816273 -17.40683l24.574806 75.77429l-5.1181107 44.031494z" fill-rule="evenodd"/><path fill="#32965d" fill-opacity="0.6" d="m139.33858 164.86089l-95.230965 159.74016l-5.120735 162.81366l312.31497 13.309692l-43.007874 -178.1706l-75.77429 -155.64566z" fill-rule="evenodd"/><path fill="#cacdc2" fill-opacity="0.6" d="m252.80577 330.68765l42.42781 163.2861l-42.42781 1.2861023z" fill-rule="evenodd"/><path fill="#a6b07e" fill-opacity="0.6" d="m85.661415 90.25984l36.0 -2.572174l-18.0 119.572174l9.0 115.71391l-18.0 135.0l-20.56955 1.2861023l25.713905 -126.0z" fill-rule="evenodd"/><path fill="#2d9f51" fill-opacity="0.6" d="m101.77526 88.973755l-3.2557068 378.0l48.85331 -2.572174l-13.027252 -303.42783l-16.28518 -70.71391z" fill-rule="evenodd"/><path fill="#7d845f" fill-opacity="0.6" d="m257.09448 372.72702l52.223114 2.0498962l18.433075 108.54068l-64.51184 1.0236206l-9.21521 -91.13388z" fill-rule="evenodd"/><path fill="#32965d" fill-opacity="0.6" d="m98.519684 398.83203l-18.0 46.28607l-12.858269 61.71393l255.85303 0l-29.566925 -66.85828l-22.595795 -87.427826l-32.29135 -52.713898l1.2388458 118.28607l43.469833 63.0l-145.3937 -3.8582458l-14.141739 -360.0z" fill-rule="evenodd"/><path fill="#44c2f4" fill-opacity="0.6" d="m111.37533 469.54593l-57.855644 28.286102l33.427826 12.855621l228.85828 5.1443787l20.56955 -21.858276l-52.71393 -29.572174z" fill-rule="evenodd"/><path fill="#c1e7fc" fill-opacity="0.6" d="m113.94751 484.97375l-38.57218 14.144348l228.85825 11.56955l19.286102 -20.56955l-54.0 -16.716522l-77.14435 -18.0z" fill-rule="evenodd"/><path fill="#aae0f8" fill-opacity="0.6" d="m110.091866 83.31759l71.58369 1.3274994l27.332108 22.562103l6.5068817 49.103996l-83.29822 9.28981z" fill-rule="evenodd"/><path fill="#7d845f" fill-opacity="0.6" d="m256.07086 387.063l31.742798 -5.118103l20.480316 99.32547l-47.102386 0z" fill-rule="evenodd"/><path fill="#2198d0" fill-opacity="0.6" d="m106.2336 84.603676l110.572174 20.56955l6.427826 54.000008l-96.427826 -41.14174z" fill-rule="evenodd"/><path fill="#44c2f4" fill-opacity="0.6" d="m176.94751 386.7454l-61.713913 83.572205l165.85826 6.4277954l-57.85826 -133.7139l-59.14174 -12.858276z" fill-rule="evenodd"/><path fill="#aae0f8" fill-opacity="0.6" d="m130.66142 106.45932l2.3700714 239.14435l59.225723 18.0l43.82939 -75.85828l-7.1102295 -138.85825l-12.1706085 -50.14174z" fill-rule="evenodd"/><path fill="#44c2f4" fill-opacity="0.6" d="m105.97638 91.031494l28.286087 93.85565l-12.601051 15.430435l24.173225 79.71391l-20.572174 18.0l-1.286087 186.42783l154.2861 -1.2861023l-33.42784 -52.713898l-9.0 -186.42783l-9.0 -108.0l-47.572174 -41.144356z" fill-rule="evenodd"/><path fill="#44c2f4" fill-opacity="0.6" d="m156.37534 291.60367l-25.713913 138.85565l36.0 29.572174l69.430435 -117.0l-65.572174 -86.14435l23.141739 -83.569565l-43.713913 -66.85826l12.858261 198.0z" fill-rule="evenodd"/><path fill="#0d6eb2" fill-opacity="0.6" d="m156.1181 235.0315l9.0 60.427826l-23.141724 15.427826l5.1417236 34.716522l20.57219 11.56955l10.286087 109.2861l24.427826 5.144348l10.286087 -38.572174l-3.8556519 -138.85828l-9.0 -30.855621z" fill-rule="evenodd"/><path fill="#1d83c1" fill-opacity="0.6" d="m154.83464 449.7454l-5.144348 -210.85825l16.713913 23.144348l11.572174 -54.0l16.713913 45.0l18.0 -43.713913l-3.8556519 55.286087l19.283463 18.0l7.7165375 145.28348l-20.572174 47.572174z" fill-rule="evenodd"/><path fill="#0d6eb2" d="m170.51968 273.60367l-32.14435 172.28348l81.0 -73.28348l-2.5695648 -191.57217l-45.0 -23.144348z" fill-rule="evenodd"/><path fill="#44c2f4" fill-opacity="0.6" d="m236.09186 451.0315l0 -113.14435l-15.430435 70.71652l-46.286087 -29.572174l-59.14174 37.286102l7.713913 51.427795l144.0 2.5722046z" fill-rule="evenodd"/><path fill="#0d6eb2" d="m174.63255 184.88715l-3.8556519 102.858246l20.572174 19.286102l-16.716522 48.85565l51.430435 -29.56955z" fill-rule="evenodd"/><path fill="#aae0f8" fill-opacity="0.6" d="m121.31504 104.03948l42.567787 186.41467l4.1221466 35.381348l3.986679 -66.20148l23.300735 18.305328l12.521057 -178.11163z" fill-rule="evenodd"/><path fill="#899169" fill-opacity="0.6" d="m74.826775 322.5538l-11.26247 132.09186l64.509186 16.38321l-14.335953 -165.88452z" fill-rule="evenodd"/><path fill="#aae0f8" fill-opacity="0.6" d="m142.2336 146.31758l18.0 123.42781l-19.286087 42.427826l2.572174 70.71393l27.0 0l-3.858261 -75.85565l43.713913 -34.713898l5.144348 -163.2861l-93.85827 -1.286087z" fill-rule="evenodd"/><path fill="#c1e7fc" fill-opacity="0.6" d="m166.66142 443.3176l30.858261 -9.0l24.427826 10.286072l63.0 34.71393l-153.0 5.1417236z" fill-rule="evenodd"/><path fill="#2198d0" fill-opacity="0.6" d="m200.09186 431.7454l-80.99999 46.286102l147.85565 -9.0l-33.427826 -38.572174z" fill-rule="evenodd"/><path fill="#2198d0" fill-opacity="0.6" d="m186.97638 474.17322l-45.0 -29.56955l14.141724 -248.14435l14.144363 32.14435l28.286087 -3.858261l5.141739 -88.71391l16.713913 128.57217l9.0 -25.716522l7.7138977 75.858246l-3.8556366 113.141754z" fill-rule="evenodd"/><path fill="#aae0f8" fill-opacity="0.6" d="m156.63255 138.60367l28.286087 136.28348l-10.286087 54.0l28.286087 66.858246l16.713913 -60.427795l-9.0 -79.71393l11.572174 -123.430435l-74.572174 -18.000008z" fill-rule="evenodd"/><path fill="#c1e7fc" fill-opacity="0.6" d="m110.34725 78.173225l70.041435 2.4507751l23.345383 9.800583l15.563583 22.049446l9.079193 49.000427l-1.294754 72.277756l-19.45581 -88.202774l-12.97142 -37.97445l-18.158401 -7.3498154l-67.44397 -3.6761627" fill-rule="evenodd"/><path fill="#899169" fill-opacity="0.6" d="m60.490814 319.48032l51.19948 -12.278229l19.456696 170.99738l-76.80053 -1.1942139z" fill-rule="evenodd"/><path fill="#44c2f4" fill-opacity="0.6" d="m151.2336 435.60367l-32.14173 45.0l106.713905 -19.286072z" fill-rule="evenodd"/><path fill="#c1e7fc" fill-opacity="0.6" d="m113.94751 92.31759l99.002396 3.631401l-1.25354 55.6642l-30.07756 -16.941605l-50.126694 19.362534z" fill-rule="evenodd"/><path fill="#aae0f8" fill-opacity="0.6" d="m206.26247 110.31759l-82.28609 -20.572182l-2.5721817 83.572174l33.430443 84.85564l-30.858261 28.286102l-6.427826 64.28607l-7.7139053 15.427826l14.141731 30.858276l-19.286087 92.572174l188.99998 -7.716522l-41.141724 -51.427826l-7.713913 -167.14172z" fill-rule="evenodd"/><path fill="#e4f5ff" fill-opacity="0.6" d="m122.94751 111.603676l36.16797 80.52494l5.2572174 -80.96589l35.719162 15.868767l28.283478 100.28609l-10.283478 -122.144356l-23.144348 -18.0l-75.855644 0z" fill-rule="evenodd"/><path fill="#c1e7fc" fill-opacity="0.6" d="m129.37534 443.3176l-30.855652 45.0l159.42783 -9.0z" fill-rule="evenodd"/><path fill="#ffffff" fill-opacity="0.6" d="m283.6614 466.97375l-35.999985 25.713898l14.141739 20.572174l37.28607 -5.144348l14.144348 -39.85562z" fill-rule="evenodd"/><path fill="#ffffff" fill-opacity="0.6" d="m222.26454 515.66296l34.992172 -1.1414795l14.090149 -19.915588l-16.74173 -13.08374l-40.748947 20.201263z" fill-rule="evenodd"/><path fill="#ffffff" fill-opacity="0.6" d="m50.231976 482.09113l40.347134 29.483398l36.414787 -3.6466675l-5.17482 -24.977692l-66.54793 -19.281006z" fill-rule="evenodd"/><path fill="#ffffff" fill-opacity="0.6" d="m148.9394 487.78494l-28.535881 -17.128906l-12.218613 15.295715l13.142654 23.742493l33.936806 -1.5799866z" fill-rule="evenodd"/><path fill="#ffc107" fill-opacity="0.6" d="m90.80577 460.4042l0 0c0 -1.6264343 1.7274094 -2.9448853 3.8582687 -2.9448853l0 0c2.130867 0 3.8582687 1.3184509 3.8582687 2.9448853l0 0c0 1.6264038 -1.7274017 2.9448853 -3.8582687 2.9448853l0 0c-2.1308594 0 -3.8582687 -1.3184814 -3.8582687 -2.9448853z" fill-rule="evenodd"/><path fill="#ffc107" fill-opacity="0.6" d="m82.80577 468.4042l0 0c0 -1.6264343 1.7274094 -2.9448853 3.8582687 -2.9448853l0 0c2.130867 0 3.8582687 1.3184509 3.8582687 2.9448853l0 0c0 1.6264038 -1.7274017 2.9448853 -3.8582687 2.9448853l0 0c-2.1308594 0 -3.8582687 -1.3184814 -3.8582687 -2.9448853z" fill-rule="evenodd"/><path fill="#ffc107" fill-opacity="0.6" d="m99.40905 468.86908l0 0c2.348297 1.2263489 3.6456146 3.37677 2.897644 4.8031616l0 0c-0.3591919 0.68496704 -1.1516495 1.1079407 -2.2030334 1.1758728c-1.051384 0.06790161 -2.2755737 -0.22476196 -3.403267 -0.8136902l0 0c-2.348297 -1.2263184 -3.6456146 -3.37677 -2.8976364 -4.803131l0 0c0.7479706 -1.4263916 3.2579956 -1.5885315 5.6062927 -0.36221313z" fill-rule="evenodd"/><path fill="#ffc107" fill-opacity="0.6" d="m285.05597 457.4173l0 0c-0.51312256 -1.1132812 -2.3886108 -1.5715637 -4.188965 -1.0236206l0 0c-1.800354 0.5479431 -2.8438416 1.8945923 -2.330719 3.0078735l0 0c0.5131531 1.1132507 2.3886108 1.5715637 4.1889954 1.0236206l0 0c1.800354 -0.5479431 2.8438416 -1.8946228 2.3306885 -3.0078735z" fill-rule="evenodd"/><path fill="#ffc107" fill-opacity="0.6" d="m294.31985 460.86017l0 0c-0.5131531 -1.1132812 -2.3886414 -1.5715637 -4.1889954 -1.0236206l0 0c-1.800354 0.5479431 -2.8438416 1.8945923 -2.330719 3.0078735l0 0c0.5131531 1.1132507 2.3886414 1.5715637 4.1889954 1.0236206l0 0c1.800354 -0.5479431 2.8438416 -1.8946228 2.330719 -3.0078735z" fill-rule="evenodd"/><path fill="#ffc107" fill-opacity="0.6" d="m280.4673 465.42865l0 0c-1.6003418 1.4437561 -2.0233765 3.2557678 -0.94488525 4.047241l0 0c0.5179138 0.38006592 1.3198853 0.46914673 2.2294922 0.24765015c0.90963745 -0.22149658 1.8523865 -0.7354431 2.6209106 -1.4287415l0 0c1.6003113 -1.4437866 2.023346 -3.2557983 0.94488525 -4.0472717l0 0c-1.0784912 -0.7914429 -3.2500916 -0.2626648 -4.850403 1.1811218z" fill-rule="evenodd"/></g></svg>